<?xml version="1.0" encoding="utf-8"?>
<!-- Generator: Adobe Illustrator 21.1.0, SVG Export Plug-In . SVG Version: 6.00 Build 0)  -->
<svg version="1.1" xmlns="http://www.w3.org/2000/svg" xmlns:xlink="http://www.w3.org/1999/xlink" x="0px" y="0px"
	 viewBox="0 0 100 100" style="enable-background:new 0 0 100 100;" xml:space="preserve">
<style type="text/css">
	.st0{fill:#603813;}
	.st1{fill:#8CC63F;}
</style>
<g id="Layer_2">
	<path class="st0" d="M44.8,59.2h6c0,0,0,3.4,0.5,4.8s1.4,2.3,1.4,2.3h-9.3c0,0,2.3-2.6,2.1-4.2S44.8,59.2,44.8,59.2z"/>
</g>
<g id="Layer_3">
	<path class="st1" d="M32,54c0,0-0.1,3.6,3.2,5c3.3,1.4,5.5,0.6,5.5,0.6s0.8,2.2,6.3,2.6c5.5,0.5,8-2.1,8-2.1s3.7,0.1,6.1-1.2
		c2.4-1.4,2.7-4.8,2.7-4.8s3-1.2,2.8-6.4s-3-6.1-3-6.1s0.3-2.9-2.8-5.9s-7.4-2.1-7.4-2.1s-2.6-2.3-7.9-1.7s-7,4.6-7,4.6
		s-2.1-0.7-5,2.1s-1.9,5.4-1.9,5.4s-1.5,0.5-1.6,4.5C29.9,52.3,32,54,32,54z"/>
</g>
</svg>
