<?xml version="1.0" encoding="utf-8"?>
<!-- Generator: Adobe Illustrator 21.1.0, SVG Export Plug-In . SVG Version: 6.00 Build 0)  -->
<svg version="1.1" xmlns="http://www.w3.org/2000/svg" xmlns:xlink="http://www.w3.org/1999/xlink" x="0px" y="0px"
	 viewBox="0 0 100 100" style="enable-background:new 0 0 100 100;" xml:space="preserve">
<style type="text/css">
	.st0{fill:url(#SVGID_1_);}
	.st1{fill:url(#SVGID_2_);}
</style>
<g id="Layer_1">
	<linearGradient id="SVGID_1_" gradientUnits="userSpaceOnUse" x1="52.75" y1="78.125" x2="52.75" y2="39.3121">
		<stop  offset="0" style="stop-color:#943E00"/>
		<stop  offset="1" style="stop-color:#552A00"/>
	</linearGradient>
	<path class="st0" d="M10.8,49.3c-0.9-7,11-7,22.4-8.5c16.2-2.1,17.4,3,32.5,0.4c6.7-1.1,11.4-3,18.3-1.1c1.8,0.5,12.9,1.8,10.4,7.5
		s-9.4-0.5-19.5,9.8c-6.6,6.7-4.6-5-13.7,1.8c-6.9,5.2-4.6,18.9-9.5,18.9s-3-11.7-9.1-13.9c-3.6-1.3-4.1,3.8-7.3,3.3s-3.5-6.5-8-10
		C20.2,52,11.7,56.3,10.8,49.3z"/>
</g>
<g id="Layer_2">
	<linearGradient id="SVGID_2_" gradientUnits="userSpaceOnUse" x1="52.3899" y1="35.7864" x2="52.3899" y2="49.7226">
		<stop  offset="0" style="stop-color:#24EA00"/>
		<stop  offset="1" style="stop-color:#08A000"/>
	</linearGradient>
	<path class="st1" d="M9.3,48.9c3.3,2.7,8.9-2.6,16.9,0.1c3.9,1.3,5.1-4.9,15.5-4c8.2,0.7,7.1,2.4,13.1,2.4c9.8,0,11.4-4.4,19.5-3.3
		c4.2,0.6,5,2,11.8,3c8,1.2,9.6-0.4,10-0.9c1.6-1.9,1.3-7.3-6.4-7s-10-3.9-16.5-3.5c-7.8,0.5-7,2.3-14.1,2.6
		c-2.8,0.1-2.2-0.2-14.6-1.3c-8.1-0.7-9.9-0.7-12.3-0.1c-4.7,1.1-3.4,1.9-7.4,2.2c-4.4,0.4-7.5,0.2-11.8,1.3S6,46.2,9.3,48.9z"/>
</g>
</svg>
