<?xml version="1.0" encoding="utf-8"?>
<!-- Generator: Adobe Illustrator 21.1.0, SVG Export Plug-In . SVG Version: 6.00 Build 0)  -->
<svg version="1.1" xmlns="http://www.w3.org/2000/svg" xmlns:xlink="http://www.w3.org/1999/xlink" x="0px" y="0px"
	 viewBox="0 0 100 100" style="enable-background:new 0 0 100 100;" xml:space="preserve">
<style type="text/css">
	.st0{fill:url(#SVGID_1_);}
	.st1{fill:url(#SVGID_2_);}
	.st2{fill:url(#SVGID_3_);}
</style>
<g id="Layer_3">
	<linearGradient id="SVGID_1_" gradientUnits="userSpaceOnUse" x1="53.0267" y1="75.3771" x2="53.0267" y2="42.1671">
		<stop  offset="0" style="stop-color:#A67C52"/>
		<stop  offset="1" style="stop-color:#603813"/>
	</linearGradient>
	<path class="st0" d="M20.9,57.3c21.7,0.5,13.1,16.9,20.3,18c5.7,0.8,2.3-10.5,11.9-12.3c4.7-0.9,7.2,1.8,10.8,1.8
		s3.4-10.3,17.5-12.1c14-1.8,16.3-8.7,7.3-9.9c-9-1.2-18.3-0.2-21.9,0.4c-4.5,0.7-13.5,2.3-15.1,2.9c-1.6,0.7-2.1,3.3-3.4,4.8
		c-1.3,1.4-4.7,2.4-6.4,1.2c-1.8-1.2-0.7-5-2.3-5.6C38,45.8,37,46.1,34,45.5C28.4,44.4,19.7,45,15.7,46
		C9.9,47.4,10.2,57.1,20.9,57.3z"/>
</g>
<g id="Layer_4">
	<linearGradient id="SVGID_2_" gradientUnits="userSpaceOnUse" x1="72.5545" y1="38.7622" x2="72.5545" y2="47.9986">
		<stop  offset="0" style="stop-color:#39B54A"/>
		<stop  offset="1" style="stop-color:#006837"/>
	</linearGradient>
	<path class="st1" d="M51.7,47.9c3.5,0.5,6.6-1.2,9.9-1.9c4.8-1,4.6,1.1,10.3,0.3c3.6-0.5,4.1-1.4,9.6-2.3c4.4-0.7,5.7-0.4,6.8,0.3
		c1.4,0.8,1.8,1.8,3.7,2.3c0.4,0.1,2.6,0.7,3.4-0.3c0.7-0.9,0.3-3.5-0.3-4.4c-1.1-1.6-2.9-2.3-5-2.8c-5.1-1.1-6.1,0.3-11.3-0.2
		c-4.4-0.4-8.2,0.9-12.3,0.6c-3.4-0.2-7,1-9,1.3c-1.5,0.2-5.6-0.1-7.3,2.5S50.9,47.8,51.7,47.9z"/>
	<linearGradient id="SVGID_3_" gradientUnits="userSpaceOnUse" x1="26.2613" y1="41.6205" x2="26.2613" y2="51.4248">
		<stop  offset="0" style="stop-color:#39B54A"/>
		<stop  offset="1" style="stop-color:#006837"/>
	</linearGradient>
	<path class="st2" d="M41.3,48c1.4-0.7,1.6-3.2,0.3-4.8s-2.7-1.6-5.3-1.6c-5.7,0.1-5.4,1.2-10.1,0.5c-4.7-0.7-7.2,0.5-9.5,1.5
		c-3,1.2-4.4,0.2-5.8,1.7c-0.8,0.9-1.3,2.5-0.8,3.8c0.5,1.4,2,2.4,3.3,2.3c1.7-0.1,3.9-1.2,5.9-2.5c2-1.3,6.4,0.3,8.6,0.5
		c0.8,0.1,1.6-0.3,4.7-1c2.3-0.6,2.9-0.8,3.8-0.5C38,48.3,39.9,48.7,41.3,48z"/>
</g>
</svg>
